#!OML:ASF E:\emotionWalksFemale\Project 1\Capture day 1\Session 1\Female1.ASF
:FULLY-SPECIFIED
:DEGREES
275
root 9.05639 11.7284 10.1352 198.49 -10.558 -180.444
lowerback 38.2243 -0.184875 3.20342
upperback 0.336252 0.667416 1.15131
thorax -19.0039 -0.257076 -0.644727
lowerneck -11.2504 -2.58782 -8.1019
upperneck -23.4922 -5.17746 7.82599
head -4.91599 -3.80674 4.02685
rclavicle -1.19271e-014 -2.46493e-014
rhumerus 46.258 2.33491 -66.4332
rradius 43.2551
rwrist 25.6699
rhand -30.4369 -53.8684
rfingers 7.12502
rthumb -3.73941 -83.8154
lclavicle -1.19271e-014 -2.46493e-014
lhumerus 49.559 -5.25347 72.2401
lradius 36.7471
lwrist -10.6136
lhand -28.7615 -75.4643
lfingers 7.12502
lthumb -2.12133 -45.4951
rfemur -73.7077 7.87452 23.3154
rtibia 97.4201
rfoot -43.2216 -29.1942
rtoes 24.7782
lfemur -77.7826 -3.63423 -21.0746
ltibia 94.3727
lfoot -37.8402 1.93375
ltoes -33.1151
276
root 9.06118 11.7756 10.0954 198.654 -10.5485 -180.51
lowerback 37.7406 -0.262928 2.96483
upperback 0.273644 0.45154 1.01635
thorax -18.8996 -0.315151 -0.570773
lowerneck -12.3449 -2.54733 -7.87178
upperneck -22.942 -5.12325 7.79787
head -4.58813 -3.80107 3.92852
rclavicle -1.86858e-014 5.96354e-015
rhumerus 48.104 0.95016 -65.4483
rradius 43.5864
rwrist 24.9283
rhand -30.147 -53.5507
rfingers 7.12502
rthumb -3.45946 -83.5024
lclavicle -1.86858e-014 5.96354e-015
lhumerus 51.5192 -4.06955 70.3037
lradius 36.9466
lwrist -10.3668
lhand -28.734 -75.6346
lfingers 7.12502
lthumb -2.09483 -45.6652
rfemur -73.3923 7.82629 23.2811
rtibia 96.9298
rfoot -43.0768 -29.0987
rtoes 24.3811
lfemur -77.4508 -3.58203 -21.0837
ltibia 93.8531
lfoot -37.6201 1.6079
ltoes -32.6428
277
root 9.06771 11.8378 10.0442 198.498 -10.6691 -180.559
lowerback 37.4014 -0.28404 3.13814
upperback -0.276548 0.592859 0.953655
thorax -19.4544 -0.248814 -0.81671
lowerneck -10.7846 -2.7602 -8.33764
upperneck -23.1807 -5.30116 7.95023
head -4.86518 -3.80214 4.099
rclavicle 3.97569e-016 1.15295e-014
rhumerus 48.3148 -0.460879 -63.8845
rradius 44.0592
rwrist 24.234
rhand -29.7657 -53.703
rfingers 7.12502
rthumb -3.09115 -83.6603
lclavicle 3.97569e-016 1.15295e-014
lhumerus 52.6561 -3.77947 69.0788
lradius 36.8118
lwrist -10.0671
lhand -28.7562 -75.7318
lfingers 7.12502
lthumb -2.11622 -45.7625
rfemur -72.509 7.71142 23.3494
rtibia 96.327
rfoot -43.2563 -28.9376
rtoes 24.311
lfemur -76.6355 -3.62326 -21.0364
ltibia 93.2309
lfoot -37.5174 1.31929
ltoes -32.2238
278
root 9.07207 11.9069 9.99562 198.38 -10.7784 -180.592
lowerback 36.7805 -0.347461 3.20012
upperback -0.303582 0.52348 0.867609
thorax -19.2314 -0.272844 -0.920417
lowerneck -10.8641 -2.79431 -8.24778
upperneck -23.165 -5.38163 7.82057
head -4.85021 -3.84285 4.0392
rclavicle -4.77083e-015 -4.77083e-015
rhumerus 49.0859 -2.02633 -62.7328
rradius 44.8144
rwrist 23.7636
rhand -29.1605 -53.7109
rfingers 7.12502
rthumb -2.50675 -83.6759
lclavicle -4.77083e-015 -4.77083e-015
lhumerus 53.5228 -2.7967 67.7012
lradius 37.6857
lwrist -9.90429
lhand -28.671 -75.7011
lfingers 7.12502
lthumb -2.03395 -45.7311
rfemur -71.6798 7.5724 23.3954
rtibia 95.6699
rfoot -43.1509 -28.6821
rtoes 24.2019
lfemur -75.8346 -3.64773 -20.9972
ltibia 92.5557
lfoot -37.3799 1.02254
ltoes -31.7705
279
root 9.07516 11.9805 9.95088 198.384 -10.8086 -180.547
lowerback 36.0273 -0.396424 3.24114
upperback -0.384145 0.472039 0.789202
thorax -19.0169 -0.283481 -1.01503
lowerneck -11.1035 -2.87308 -8.26124
upperneck -22.8717 -5.44867 7.85005
head -4.71385 -3.86135 4.02956
rclavicle 1.55052e-014 -2.14687e-014
rhumerus 49.8821 -3.30665 -61.2839
rradius 45.3679
rwrist 23.0485
rhand -28.6913 -53.2337
rfingers 7.12502
rthumb -2.05354 -83.2035
lclavicle 1.55052e-014 -2.14687e-014
lhumerus 54.2237 -1.78463 66.1201
lradius 38.5306
lwrist -9.63072
lhand -28.4028 -75.4146
lfingers 7.12502
lthumb -1.77494 -45.4422
rfemur -71.0421 7.47538 23.49
rtibia 94.9417
rfoot -42.76 -28.4287
rtoes 24.0426
lfemur -75.1795 -3.57512 -20.9188
ltibia 91.8433
lfoot -37.1416 1.12364
ltoes -32.6582
280
root 9.07852 12.0475 9.90414 198.423 -10.7969 -180.492
lowerback 35.1252 -0.390644 3.27744
upperback -0.679369 0.528851 0.749976
thorax -19.0001 -0.239914 -1.11876
lowerneck -10.0779 -2.94704 -8.45104
upperneck -23.0127 -5.50231 7.90676
head -4.9014 -3.84002 4.11024
rclavicle 5.56597e-015 2.0276e-014
rhumerus 50.1135 -4.20694 -59.2759
rradius 45.8703
rwrist 22.2308
rhand -28.4711 -52.8642
rfingers 7.12502
rthumb -1.84092 -82.836
lclavicle 5.56597e-015 2.0276e-014
lhumerus 54.5532 -1.0299 64.8092
lradius 38.9739
lwrist -9.52888
lhand -28.1231 -75.1217
lfingers 7.12502
lthumb -1.50479 -45.1472
rfemur -70.4587 7.40582 23.6169
rtibia 94.1851
rfoot -42.4441 -28.3344
rtoes 23.9695
lfemur -74.6009 -3.5025 -20.8129
ltibia 91.1477
lfoot -36.8848 1.1221
ltoes -33.0102
281
root 9.07952 12.1175 9.8528 198.345 -10.8058 -180.559
lowerback 34.536 -0.472185 3.13884
upperback -0.701473 0.358507 0.725709
thorax -18.779 -0.286233 -0.996305
lowerneck -10.5679 -2.89529 -8.48149
upperneck -22.782 -5.43395 7.85381
head -4.76181 -3.80552 4.07615
rclavicle -2.78299e-015 -1.63003e-014
rhumerus 50.8885 -4.91434 -57.1606
rradius 46.575
rwrist 21.4219
rhand -28.2525 -52.7129
rfingers 7.12502
rthumb -1.62976 -82.6864
lclavicle -2.78299e-015 -1.63003e-014
lhumerus 56.0236 0.429381 63.576
lradius 38.4
lwrist -9.77812
lhand -28.0178 -74.622
lfingers 7.12502
lthumb -1.40315 -44.6468
rfemur -69.6224 7.28593 23.6442
rtibia 93.3714
rfoot -42.1553 -28.3481
rtoes 23.7357
lfemur -73.7898 -3.49848 -20.8373
ltibia 90.4009
lfoot -36.7569 0.839878
ltoes -32.1068
282
root 9.07876 12.2039 9.79871 198.215 -10.8005 -180.584
lowerback 33.998 -0.54185 3.16364
upperback -0.949327 0.287117 0.598282
thorax -18.8548 -0.308804 -1.12875
lowerneck -10.1224 -2.89515 -8.49698
upperneck -22.7661 -5.38388 8.02483
head -4.8184 -3.76625 4.14288
rclavicle 6.36111e-015 5.56597e-015
rhumerus 50.8353 -5.59604 -54.9894
rradius 47.3683
rwrist 20.9606
rhand -27.9234 -52.3953
rfingers 7.12502
rthumb -1.31195 -82.371
lclavicle 6.36111e-015 5.56597e-015
lhumerus 57.3967 1.37324 62.1816
lradius 37.532
lwrist -9.93984
lhand -28.1125 -74.2145
lfingers 7.12502
lthumb -1.4946 -44.24
rfemur -68.5674 7.205 23.6843
rtibia 92.3908
rfoot -42.1103 -28.2589
rtoes 23.9445
lfemur -72.7787 -3.43248 -20.8504
ltibia 89.5522
lfoot -36.8333 0.863632
ltoes -32.1969
283
root 9.08399 12.2986 9.74191 198.091 -10.7146 -180.482
lowerback 33.221 -0.597889 3.13412
upperback -1.05521 0.196694 0.540137
thorax -18.6419 -0.330822 -1.14471
lowerneck -10.3725 -2.93223 -8.64485
upperneck -22.4128 -5.34997 8.25022
head -4.65705 -3.73263 4.2159
rclavicle -1.33186e-014 -7.55382e-015
rhumerus 50.9877 -6.23047 -53.1514
rradius 47.8907
rwrist 21.1172
rhand -27.5217 -52.1231
rfingers 7.12502
rthumb -0.923998 -82.1008
lclavicle -1.33186e-014 -7.55382e-015
lhumerus 57.0523 2.4835 60.5451
lradius 38.4005
lwrist -9.81738
lhand -27.9611 -73.723
lfingers 7.12502
lthumb -1.34832 -43.7476
rfemur -67.4894 7.1877 23.8761
rtibia 91.265
rfoot -42.1561 -28.0524
rtoes 24.6127
lfemur -71.7481 -3.18826 -20.7278
ltibia 88.6187
lfoot -36.8323 0.642064
ltoes -31.9567
284
root 9.09659 12.3949 9.67871 197.866 -10.5742 -180.321
lowerback 32.394 -0.606766 2.96097
upperback -1.06904 0.107192 0.533979
thorax -18.2866 -0.338401 -1.02411
lowerneck -10.7436 -2.93138 -8.52382
upperneck -21.968 -5.32666 8.14072
head -4.46975 -3.70682 4.13119
rclavicle 1.80894e-014 1.11319e-014
rhumerus 51.0293 -6.64927 -51.2807
rradius 48.4923
rwrist 21.2424
rhand -26.9427 -51.8669
rfingers 7.12502
rthumb -0.364742 -81.8463
lclavicle 1.80894e-014 1.11319e-014
lhumerus 57.0019 3.70128 58.9738
lradius 38.7574
lwrist -9.86513
lhand -27.4552 -72.6392
lfingers 7.12502
lthumb -0.859777 -42.6612
rfemur -66.2695 7.23356 24.1705
rtibia 90.0641
rfoot -42.1142 -27.873
rtoes 24.9996
lfemur -70.5953 -2.82642 -20.5428
ltibia 87.6186
lfoot -36.698 0.0505006
ltoes -30.6173
285
root 9.10384 12.4954 9.61428 197.571 -10.4912 -180.208
lowerback 31.6686 -0.585152 2.8749
upperback -1.21263 0.117664 0.565317
thorax -18.1293 -0.310448 -0.954666
lowerneck -10.612 -2.9575 -8.51461
upperneck -21.5824 -5.32526 7.93488
head -4.37738 -3.65998 4.04967
rclavicle -2.98177e-015 3.97569e-016
rhumerus 50.526 -6.84105 -48.9611
rradius 49.2244
rwrist 21.1286
rhand -26.1671 -51.3061
rfingers 7.12502
rthumb 0.384314 -81.2855
lclavicle -2.98177e-015 3.97569e-016
lhumerus 57.0791 4.54924 57.683
lradius 38.4987
lwrist -10.2594
lhand -27.4843 -71.5671
lfingers 7.12502
lthumb -0.88786 -41.5892
rfemur -64.8871 7.22303 24.4055
rtibia 88.8212
rfoot -42.2845 -27.6968
rtoes 25.3399
lfemur -69.2792 -2.62415 -20.3858
ltibia 86.5509
lfoot -36.5687 -0.314529
ltoes -29.4241
286
root 9.09973 12.5919 9.55298 197.307 -10.3751 -180.315
lowerback 31.2387 -0.671322 2.64357
upperback -1.09936 -0.116205 0.48061
thorax -17.7981 -0.387856 -0.82308
lowerneck -12.3874 -2.86403 -8.12098
upperneck -20.5145 -5.18391 7.64241
head -3.81176 -3.59447 3.80792
rclavicle 2.14687e-014 -2.22639e-014
rhumerus 50.8303 -7.05791 -46.9297
rradius 49.6398
rwrist 20.7989
rhand -25.4744 -50.6679
rfingers 7.12502
rthumb 1.05334 -80.645
lclavicle 2.14687e-014 -2.22639e-014
lhumerus 57.134 5.78635 55.5524
lradius 38.6171
lwrist -9.97078
lhand -27.3357 -69.7929
lfingers 7.12502
lthumb -0.744319 -39.8144
rfemur -63.5773 7.04493 24.3788
rtibia 87.6507
rfoot -42.3352 -27.3739
rtoes 25.4029
lfemur -67.906 -2.60766 -20.4706
ltibia 85.4398
lfoot -36.4309 -0.380723
ltoes -28.638
